<?xml version="1.0" encoding="utf-8"?>
<svg xmlns="http://www.w3.org/2000/svg" xmlns:xlink="http://www.w3.org/1999/xlink">
  <symbol xmlns="http://www.w3.org/2000/svg" id="ice-cream" viewBox="0 0 15 15">
    <path d="M5.44,8.17a3.473,3.473,0,0,0,2-.63A3.5,3.5,0,0,0,9,8.14h.44L8,13.7a.5.5,0,0,1-.92,0Zm6-3.473a2,2,0,0,1-4,0h0a2,2,0,1,1-2-2h.12a2,2,0,1,1,3.75,0h.13A2,2,0,0,1,11.439,4.7Z"></path>
  </symbol>
  <symbol version="1.1" id="landmark" xmlns="http://www.w3.org/2000/svg" viewBox="0 0 15 15">
    <path d="M12.5,12H12v-0.5c0-0.3-0.2-0.5-0.5-0.5H11V6h1l1-2c-1,0.1-2,0.1-3,0C9.2,3.4,8.6,2.8,8,2V1.5C8,1.2,7.8,1,7.5,1
	S7,1.2,7,1.5V2C6.4,2.8,5.8,3.4,5,4C4,4.1,3,4.1,2,4l1,2h1v5c0,0-0.5,0-0.5,0C3.2,11,3,11.2,3,11.5V12H2.5C2.2,12,2,12.2,2,12.5V13
	h11v-0.5C13,12.2,12.8,12,12.5,12z M7,11H5V6h2V11z M10,11H8V6h2V11z"></path>
  </symbol>
  <symbol version="1.1" id="lighthouse" xmlns="http://www.w3.org/2000/svg" viewBox="0 0 15 15">
    <path d="M4.5,6L0,7V6.5l4.5-1V6z M4.5,3.5L0,2.5V3l4.5,1V3.5z M10.5,3.5V4L15,3V2.5L10.5,3.5z M10.5,6L15,7V6.5l-4.5-1V6z M8,7V2
	h2.5c0.2761,0.0552,0.5448-0.1239,0.6-0.4c0.0552-0.2761-0.1239-0.5448-0.4-0.6l-3-1C7.5696-0.0586,7.4204-0.0586,7.29,0l-3,1
	c-0.2761,0.0552-0.4552,0.3239-0.4,0.6S4.2139,2.0552,4.49,2H7v5H5l-2,7h9l-2-7H8z"></path>
  </symbol>
  <symbol version="1.1" id="lodging" xmlns="http://www.w3.org/2000/svg" viewBox="0 0 15 15">
    <path id="rect6507" d="M0.5,2.5C0.2,2.5,0,2.7,0,3v7.5v2C0,12.8,0.2,13,0.5,13S1,12.8,1,12.5V11h13v1.5
	c0,0.3,0.2,0.5,0.5,0.5s0.5-0.2,0.5-0.5v-2c0-0.3-0.2-0.5-0.5-0.5H1V3C1,2.7,0.8,2.5,0.5,2.5z M3.5,3C2.7,3,2,3.7,2,4.5l0,0
	C2,5.3,2.7,6,3.5,6l0,0C4.3,6,5,5.3,5,4.5l0,0C5,3.7,4.3,3,3.5,3L3.5,3z M7,4C5.5,4,5.5,5.5,5.5,5.5V7h-3C2.2,7,2,7.2,2,7.5v1
	C2,8.8,2.2,9,2.5,9H6h9V6.5C15,4,12.5,4,12.5,4H7z"></path>
  </symbol>
  <symbol version="1.1" id="monument" xmlns="http://www.w3.org/2000/svg" viewBox="0 0 15 15">
    <path id="path11719-7" d="M7.5,0L6,2.5v7h3v-7L7.5,0z M3,11.5
	L3,15h9v-3.5L10.5,10h-6L3,11.5z"></path>
  </symbol>
  <symbol xmlns="http://www.w3.org/2000/svg" id="mountain" viewBox="0 0 15 15">
    <path d="m7.5 1c-.3 0-.4.2-.6.4l-5.8 9.5c-.1.1-.1.3-.1.4 0 .5.4.7.7.7h11.6c.4 0 .7-.2.7-.7 0-.2 0-.2-.1-.4l-5.7-9.5c-.2-.2-.4-.4-.7-.4zm0 1.5 3.3 5.5h-.8l-1.5-1.5-1 1.5-1-1.5-1.5 1.5h-.9z"></path>
  </symbol>
  <symbol version="1.1" id="museum" xmlns="http://www.w3.org/2000/svg" viewBox="0 0 15 15">
    <path id="path7509" d="M7.5,0L1,3.5V4h13V3.5L7.5,0z M2,5v5l-1,1.6V13h13v-1.4L13,10V5H2z M4,6h1v5.5H4V6z M7,6h1v5.5H7V6z M10,6h1
	v5.5h-1V6z"></path>
  </symbol>
  <symbol xmlns="http://www.w3.org/2000/svg" id="observation-tower" viewBox="0 0 15 15">
    <path d="M12 12.5H11.5L10 9V7C10.9951 7 10.9951 6.25 10.9951 6.25L11.5 3C11.5 3 11.5 2.5 11 2.5H10C10 2.5 10 2 9.5 2H8.5V1.5C8.5 1.5 8.5 0.5 7.5 0.5C6.5 0.5 6.5 1.5 6.5 1.5V2H5.5C5 2 5 2.5 5 2.5H4C3.5 2.5 3.5 3 3.5 3L4.0049 6.25C4.0049 6.25 4.0049 7 5 7V9L3.5 12.5H3C3 12.5 2 12.5 2 13.25C2 14 3 14 3 14H12C12 14 13 14 13 13.25C13 12.5 12 12.5 12 12.5ZM10.25 3.5L10 5H5L4.75 3.4971L10.25 3.5ZM8.5 7V8H6.5V7H8.5ZM6.5006 9.4971H8.4994L9.5 12.5H5.5L6.5006 9.4971Z"></path>
  </symbol>
  <symbol version="1.1" xmlns="http://www.w3.org/2000/svg" xmlns:xlink="http://www.w3.org/1999/xlink" x="0" y="0" viewBox="0 0 15 15" id="pedestrian">
    <path d="M9.38 1.96C9.38 2.76 8.68 3.42 7.81 3.42C6.95 3.42 6.25 2.76 6.25 1.96C6.25 1.15 6.95 0.5 7.81 0.5C8.68 0.5 9.38 1.15 9.38 1.96zM6.25 4L6.88 4L7.19 4L12.5 7.79L12.5 8.67L11.88 8.67L8.75 6.41L8.75 8.67L10 11L11.25 13.92L10.63 14.5L10 14.5L8.75 11.58L6.25 8.08L6.25 5.37L4.69 6.63L3.44 8.67L2.5 8.67L2.5 8.08L3.44 6.33L6.25 4zM6.78 10.07L5.33 14.5L4.69 14.5L4.06 13.92L5.82 8.99z"></path>
  </symbol>
  <symbol id="playground" xmlns="http://www.w3.org/2000/svg" viewBox="0 0 15 15">
    <path d="m3.00002 1.15c.2091-.8016 1.0284-1.2819 1.83-1.0729s1.2819 1.0284 1.0729 1.83c-.2003.7681-.9643 1.2471-1.7429 1.0929-.8126-.161-1.3409-.9502-1.18-1.7629.0058-.0292.0125-.0583.02-.0871zm10.99998 11.17c.1032.5426-.2531 1.066-.7956 1.1692-.0015.0003-.0029.0006-.0044.0008-.4252.086-.8574-.1119-1.07-.49l-1.68-3.37-1.44998.29-.22.08h-.06v2.15l.62-.15h.14c.2871.0054.5155.2425.5101.5297-.0039.2064-.1295.391-.3201.4703l-5 1c-.0563.0095-.1137.0095-.17 0-.2872 0-.52-.2328-.52-.52 0-.2099.1262-.3993.32-.48l4.15-.83v-2.17l-3.22.58c-.164.0423-.336.0423-.5 0-.3394-.0867-.6088-.3446-.71-.68h-.02l-1-4.07c-.0312-.1416-.0312-.2884 0-.43.0936-.387.4078-.6815.8-.75l4.7-.52v-4.13h.22v4.1h.06l.22-.02.4-.08h.21c.2673.0643.43258.3323.37.6-.0439.235-.251.4041-.49.4l-.49.08h-.22-.06v2.86h.06l.22-.06 1.80998-.36c.4275-.0352.8299.2062 1 .6l2 3.94c.077.0758.1411.1636.19.26zm-5.49998-7.19-2.5.27.74 2.94 1.76-.34z"></path>
  </symbol>
  <symbol version="1.1" id="star" xmlns="http://www.w3.org/2000/svg" viewBox="0 0 15 15">
    <path id="path4749-2-8-2" d="M7.5,0l-2,5h-5l4,3.5l-2,6l5-3.5
	l5,3.5l-2-6l4-3.5h-5L7.5,0z"></path>
  </symbol>
  <symbol version="1.1" id="swimming" xmlns="http://www.w3.org/2000/svg" viewBox="0 0 15 15">
    <path id="path16388" d="M10.1113,2C9.9989,2,9.6758,2.1465,9.6758,2.1465L6.3535,3.8262
	C5.9111,4.0024,5.7358,4.7081,6.002,5.0605l0.9707,1.4082L3.002,8.498L5,9.998l2.502-1.5l2.5,1.5l1.002-1.002l-3-4l2.5566-1.5293
	c0.5286-0.2662,0.4434-0.7045,0.4434-0.9707C10.9999,2.2861,10.6437,2,10.1113,2z M12.252,5C11.2847,5,10.5,5.7827,10.5,6.75
	s0.7847,1.752,1.752,1.752s1.75-0.7847,1.75-1.752S13.2192,5,12.252,5z M2.5,10L0,11.5V13l2.5-1.5L5,13l2.502-1.5l2.5,1.5L12,11.5
	l3,1.5v-1.5L12,10l-1.998,1.5l-2.5-1.5L5,11.5L2.5,10z"></path>
  </symbol>
  <symbol xmlns="http://www.w3.org/2000/svg" id="town" viewBox="0 0 15 15">
    <path d="m10.651 6.121c-.0445-.0357-.0999-.05516-.157-.05516s-.1125.01946-.157.05516l-2.245 1.808c-.02881.02323-.05204.05263-.06796.08603-.01593.03341-.02414.06997-.02404.10697v4.625c0 .0671.02666.1315.0741.1789.04745.0474.1118.0741.1789.0741h1.494c.0671 0 .13145-.0267.1789-.0741s.0741-.1118.0741-.1789v-1.747h1v1.747c0 .0671.0267.1315.0741.1789.0475.0474.1118.0741.1789.0741h1.494c.0671 0 .1315-.0267.1789-.0741s.0741-.1118.0741-.1789v-4.627c.0007-.03831-.0074-.07627-.0237-.11095s-.0404-.06514-.0703-.08905zm-.651 3.879h-1v-1h1zm2 0h-1v-1h1zm-6.29-9.184997c-.02299-.034654-.05419-.063081-.09083-.082746s-.07758-.029956-.11917-.029956c-.04158 0-.08252.010291-.11916.029956-.03665.019665-.06785.048092-.09084.082746l-3.248 4.120997c-.02752.0415-.04214.09021-.042.14v7.671c-.00013.0331.00626.0659.0188.0965s.031.0585.0543.082c.02331.0235.05102.0422.08154.0549.03053.0128.06327.0195.09636.0196h2.5c.06632-.0008.12964-.0277.17626-.0749.04661-.0471.07275-.1108.07274-.1771v-1.748h1v1.748c0 .0668.02655.1309.07381.1782s.11136.0738.17819.0738h.748v-6c-.00004-.07511.01684-.14926.04938-.21695.03255-.06769.07993-.12718.13862-.17405l1.812-1.609c0-.05-3.29-4.184997-3.29-4.184997zm-1.71 8.184997h-1v-1h1zm0-3h-1v-1h1zm2 3h-1v-1h1zm0-3h-1v-1h1z"></path>
  </symbol>
  <symbol version="1.1" id="town-hall" xmlns="http://www.w3.org/2000/svg" viewBox="0 0 15 15">
    <path d="M13,4H9l0-3L7.5,0L6,1v3H2L1,5v1h13V5L13,4z M7.5,1.5c0.4,0,0.7,0.3,0.7,0.8S7.9,3,7.5,3S6.7,2.7,6.7,2.2
	C6.7,1.8,7.1,1.5,7.5,1.5z M13,7H2v4l-1,1.5V14h13v-1.5L13,11V7z M5,12.5H4V8h1V12.5z M8,12.5H7V8h1V12.5z M11,12.5h-1V8h1V12.5z"></path>
  </symbol>
  <symbol version="1.1" xmlns="http://www.w3.org/2000/svg" viewBox="0 0 15 15" id="tree_broadleaved">
    <path d="M14 5.75c0 -0.69 -0.38 -1.32 -1 -1.61C12.95 3.49 12.4 3 11.75 3c-0.1 0 -0.2 0 -0.3 0c0 -0.66 -0.64 -1.15 -1.3 -1.09C9.9 2 9.65 2.11 9.46 2.25l0 0c0 -0.69 -0.56 -1.25 -1.25 -1.25S6.96 1.59 6.96 2.25C6.96 2.25 7 2.3 7 2.33C6.49 1.89 5.72 1.95 5.25 2.46C5.13 2.63 5 2.85 5 3C4.84 3 4.68 3 4.51 3C3.68 3 3 3.66 3 4.49C3 4.69 3 4.89 3.11 5C2.32 5.3 1.85 6.11 2 6.91C2.22 7.41 2.61 7.8 3.11 7.94c0.25 0.78 1.09 1.21 1.88 0.96C5.52 8.73 5.91 8.27 6 7.71C6.18 7.87 6.41 7.97 6.65 8v5L5 14h5l-1.6 -1v-2c0.74 -0.89 1.69 -1.58 2.77 -2c0.8 0.19 1.6 -0.31 1.79 -1.11C13 7.77 13 7.64 13 7.52c0 0 0 -0.11 0 -0.16C13.62 7 14 6.44 14 5.75zM8.4 10.25V6.82C8.67 7.3 9.18 7.6 9.73 7.6h0.25c0 0.44 0.22 0.85 0.57 1.12C9.76 9.09 9 9.62 8.4 10.25z"></path>
  </symbol>
  <symbol id="viewpoint" xmlns="http://www.w3.org/2000/svg" viewBox="0 0 15 15">
    <path id="cf3b542b-d2af-4732-9b92-9e3dc05e460f" d="M6.02,8.425a2.3859,2.3859,0,0,0-.46.44l-4.55-3.5a7.9976,7.9976,0,0,1,1.51-1.51Zm6.46-4.56-3.5,4.55a2.3971,2.3971,0,0,1,.45.45l4.56-3.5A7.945,7.945,0,0,0,12.48,3.865ZM7.3042,10.0129a1.5,1.5,0,1,0,1.6829,1.2914h0A1.5,1.5,0,0,0,7.3042,10.0129ZM6.43,2.235a7.9329,7.9329,0,0,0-2.06.55l2.2,5.32a2.0438,2.0438,0,0,1,.61-.17Zm2.14.01-.75,5.69a2.49,2.49,0,0,1,.61.16l2.2-5.3A7.2129,7.2129,0,0,0,8.57,2.245Z"></path>
  </symbol>
  <symbol xmlns="http://www.w3.org/2000/svg" id="village" viewBox="0 0 15 15">
    <path d="M6.176 1.176a.249.249 0 0 0-.352 0l-4.4 4.4A.25.25 0 0 0 1.6 6H3v6.751a.25.25 0 0 0 .249.249h3.5A.248.248 0 0 0 7 12.753v-7.43c0-.066.026-.13.073-.176L8.5 3.5 6.176 1.176ZM6 11H5v-1h1v1Zm0-2H5V8h1v1Zm0-3v1H5V6h1Z M12.75 3h-.5a.25.25 0 0 0-.25.25V5l-1.324-1.824a.249.249 0 0 0-.352 0L8.056 5.932A.246.246 0 0 0 8 6.088v6.66a.249.249 0 0 0 .246.252h1.5a.253.253 0 0 0 .254-.252V11h1v1.747a.253.253 0 0 0 .253.253h1.5a.25.25 0 0 0 .247-.249V3.25a.25.25 0 0 0-.25-.25ZM10 8H9V7h1v1Zm2 0h-1V7h1v1Zm-2 2H9V9h1v1Zm2 0h-1V9h1v1Z"></path>
  </symbol>
  <symbol version="1.1" id="volcano" xmlns="http://www.w3.org/2000/svg" viewBox="0 0 15 15">
    <path id="path6447" d="M8.4844,1.0002
	c-0.1464,0.005-0.2835,0.0731-0.375,0.1875L6.4492,3.2619L4.8438,1.7385C4.4079,1.3374,3.7599,1.893,4.0899,2.385l1.666,2.4004
	C5.9472,5.061,6.3503,5.0737,6.5586,4.8108C6.7249,4.6009,7,4.133,7.5,4.133s0.7929,0.4907,0.9414,0.6777
	c0.175,0.2204,0.4973,0.2531,0.7129,0.0723l1.668-1.4004c0.4408-0.3741,0.0006-1.0735-0.5273-0.8379L9,3.2268V1.5002
	C9.0002,1.2179,8.7666,0.9915,8.4844,1.0002L8.4844,1.0002z M5,6.0002L2.0762,11.924C1.9993,12.0009,2,12.155,2,12.3088
	c0,0.5385,0.3837,0.6914,0.6914,0.6914h9.6172c0.3846,0,0.6914-0.153,0.6914-0.6914c0-0.1538,0.0008-0.2309-0.0762-0.3848L10,6.0002
	c-0.5,0-1,0.5-1,1v0.5c0,0.277-0.223,0.5-0.5,0.5S8,7.7772,8,7.5002v-0.5c0-0.2761-0.2238-0.5-0.5-0.5S7,6.7241,7,7.0002v2
	c0,0.277-0.223,0.5-0.5,0.5S6,9.2772,6,9.0002v-2C6,6.5002,5.5,6.0002,5,6.0002z"></path>
  </symbol>
  <symbol xmlns="http://www.w3.org/2000/svg" id="waterfall" viewBox="0 0 15 15">
    <path d="M14 1H5C3.34315 1 2 2.34314 2 4V8.87918C1.39704 9.28261 1 9.96937 1 10.75C1 11.9927 2.00736 13 3.25 13C3.7127 13 4.14279 12.8599 4.5 12.6209C4.85721 12.8599 5.2873 13 5.75 13C6.28601 13 6.77826 12.812 7.16413 12.5H7.51743C8.01909 12.8165 8.61403 13 9.25 13C11.0449 13 12.5 11.5449 12.5 9.75002C12.5 8.39777 11.6747 7.23919 10.5 6.74934V5C10.5 3.89543 11.3954 3 12.5 3H14V1ZM11.5 9.75C11.5 10.9926 10.4926 12 9.25 12C8.71418 12 8.2221 11.8127 7.83567 11.5H6.75009C6.52204 11.8036 6.15895 12 5.75 12C5.34105 12 4.97796 11.8036 4.74991 11.5H4.25009C4.02204 11.8036 3.65895 12 3.25 12C2.55964 12 2 11.4404 2 10.75C2 10.1453 2.42944 9.64082 3 9.525V5.75C3 5.33579 3.33579 5 3.75 5C4.16421 5 4.5 5.33579 4.5 5.75V9C4.5 9.27614 4.72386 9.5 5 9.5C5.27614 9.5 5.5 9.27614 5.5 9V6.75C5.5 6.33579 5.83579 6 6.25 6C6.66421 6 7 6.33579 7 6.75V9C7 9.27614 7.22386 9.5 7.5 9.5C7.77614 9.5 8 9.27614 8 9V5.75C8 5.33579 8.33579 5 8.75 5C9.16421 5 9.5 5.33579 9.5 5.75V7.51373C10.625 7.63809 11.5 8.59186 11.5 9.75Z"></path>
  </symbol>
  <symbol version="1.1" id="watermill" xmlns="http://www.w3.org/2000/svg" viewBox="0 0 15 15">
    <path d="M2,10.2L4,9l2.5,1.5l1.4659-0.8788C7.6592,9.4698,7.3716,9.285,7.1231,9.0536l1.4131-1.4131
	C8.7672,7.836,9.0557,7.9606,9.375,7.9874V9.224l0.25,0.1501V7.9874c0.3193-0.0268,0.6078-0.1514,0.8388-0.3469l1.4131,1.4131
	c-0.4059,0.3781-0.9044,0.6492-1.4528,0.8003L11.5,10.5l0.6984-0.4191C13.2863,9.2595,14,7.9682,14,6.5C14,4.0147,11.9853,2,9.5,2
	C8.1917,2,7.0241,2.5674,6.2018,3.4587L4.5,2L1,5h1V10.2z M12.0536,8.8769l-1.4131-1.4131c0.1954-0.231,0.3201-0.5196,0.3469-0.8388
	h1.9999C12.956,7.4946,12.6089,8.2806,12.0536,8.8769z M12.9874,6.375h-1.9999c-0.0268-0.3193-0.1514-0.6078-0.3469-0.8388
	l1.4131-1.4131C12.6089,4.7193,12.956,5.5054,12.9874,6.375z M9.625,3.0126c0.8696,0.0314,1.6557,0.3784,2.2519,0.9337
	l-1.4131,1.4131c-0.231-0.1954-0.5196-0.32-0.8388-0.3468C9.625,5.0126,9.625,3.0126,9.625,3.0126z M9.375,3.0126v1.9999
	C9.0558,5.0394,8.7672,5.164,8.5362,5.3594L7.1231,3.9463C7.7193,3.3911,8.5054,3.044,9.375,3.0126z M6.9464,4.1231l1.4131,1.4131
	C8.164,5.7672,8.0394,6.0557,8.0126,6.375h-2C6.044,5.5054,6.3911,4.7193,6.9464,4.1231z M8.0126,6.625
	c0.0268,0.3192,0.1515,0.6078,0.3469,0.8388L6.9464,8.8769C6.3911,8.2807,6.044,7.4946,6.0126,6.625H8.0126z M9.002,10L6.5,11.5
	L4,10l-2.5,1.5V13L4,11.5L6.5,13l2.502-1.5L11.5,13l2.5-1.5V10l-2.5,1.5L9.002,10z"></path>
  </symbol>
  <symbol version="1.1" id="windmill" xmlns="http://www.w3.org/2000/svg" viewBox="0 0 15 15">
    <path d="M6,5L3.5,7.5l1,1L7,6V5.5L7.5,5L8,5.5V6l2.5,2.5l1-1L9,5H8.5L8,4.5L8.5,4H9l2.5-2.5l-1-1L8,3v0.5L7.5,4L7,3.5V3L4.5,0.5
	l-1,1L6,4h0.5L7,4.5L6.5,5H6z M11.5,13h-1l-1-4l-2-2l-2,2l-1,4h-1C3.2239,13,3,13.2238,3,13.5C3,13.7761,3.2239,14,3.5,14h8
	c0.2761,0,0.5-0.2239,0.5-0.5C12,13.2238,11.7761,13,11.5,13z M8,13H7v-1.5024C7,11.2228,7.2228,11,7.4976,11
	C7.7751,11,8,11.2249,8,11.5024V13z"></path>
  </symbol>
  <symbol version="1.1" id="zoo" xmlns="http://www.w3.org/2000/svg" viewBox="0 0 15 15">
    <path id="path17499" d="
	M8.3879,3.8928C8.3879,3.8928,7.6818,5,7,5H4.5C3.8182,5,3.2016,5.4086,2.7273,5.8636L0.5,8C0.231,8.258,0.0072,8.7681,0,9
	c-0.0156,0.5,0,1,0,1s1,0,1-1V8.5l1-1h0.5l0.158,0.2892c0,0-0.9535,1.8244-0.9535,3.5289C1.7046,12,2.3864,12,2.3864,12h0.6818
	c0,0,0.3409,0,0-0.3409l-0.3409-0.3409C2.7273,10.6364,3.5002,9.6667,4,9c0,0,0.0168,1.1579,0,2c-0.008,0.4096,0.2721,1,0.6818,1
	h0.6818c0,0,0.3409,0,0-0.3409l-0.3409-0.3409C4.7105,10.7495,5.5,8.5,5.5,8.5C6.7716,8.5,7,9,8.5,9l0.3636,2.3182
	C8.975,12.0282,9.5,12,9.5,12H11c0.3409,0,0.9611-0.3115,0.3409-0.7736L11,11V9c1.2142-0.1722,2-1,2-2h1c0.3214,0,1,0,1-0.5v-1
	l-1.7045-1.6818C12.5444,3.0772,12,2.5,11,2.5C9.5469,2.5,8.8636,3.0688,8.3879,3.8928z"></path>
  </symbol>
  <symbol version="1.2" baseProfile="tiny" xmlns="http://www.w3.org/2000/svg" overflow="inherit" viewBox="0 0 50 50" id="amusement_park">
    <path d="M39.92 28.09c0.46 0.23 1.03 0.22 1.25 -0.01c0.23 -0.23 0.03 -0.6 -0.44 -0.82l-8.18 -3.79c-0.47 -0.22 -1.26 -0.27 -1.75 -0.12l-2.92 0.88c-0.5 0.15 -1.14 0.27 -1.44 0.27c-0.29 0 -0.54 -0.41 -0.54 -0.92v-8.92c0 -0.51 0.42 -0.92 0.94 -0.92h21.21c0.52 0 0.94 -0.41 0.94 -0.92v-2.99c0 -0.51 -0.41 -1.04 -0.9 -1.19l-22.33 -6.52c-0.49 -0.14 -1.31 -0.14 -1.8 0l-22.06 6.51c-0.49 0.14 -0.9 0.68 -0.9 1.19v2.99c0 0.51 0.42 0.92 0.94 0.92h20.93c0.52 0 0.94 0.42 0.94 0.92v8.92c0 0.51 -0.42 0.92 -0.94 0.92h-0.38c-0.52 0 -1.24 -0.29 -1.62 -0.64l-5.05 -4.82c-0.37 -0.35 -1.1 -0.64 -1.62 -0.64h-2.33c-0.52 0 -1.14 -0.3 -1.38 -0.68c-0.24 -0.37 -0.8 -0.67 -1.25 -0.67s-0.58 0.35 -0.3 0.78l0.04 0.07c0.28 0.43 0.28 1.13 0.01 1.56l-2.52 3.92c-0.27 0.43 -0.19 1.06 0.2 1.4l0.18 0.16c0.39 0.34 1.07 0.43 1.53 0.19l2.7 -1.41c0.46 -0.24 1.06 -0.08 1.34 0.34l2.97 4.54c0.28 0.43 0.19 1.05 -0.21 1.38l-1.36 1.13c-0.39 0.33 -0.62 1 -0.51 1.5l1.76 7.65c0.11 0.5 0.62 0.8 1.12 0.68l1.22 -0.3c0.5 -0.13 0.82 -0.63 0.71 -1.13l-1.19 -5.17c-0.11 -0.49 0.2 -1.01 0.7 -1.15l3.01 -0.81c0.5 -0.13 1.33 -0.24 1.85 -0.24h0.38c0.52 0 0.94 0.42 0.94 0.92v9.18c0 0.51 -0.42 0.92 -0.94 0.92h-20.93c-0.52 0 -0.94 0.41 -0.94 0.92v2.99c0 0.51 0.42 0.93 0.94 0.93h45.73c0.52 0 0.94 -0.41 0.94 -0.92v-2.99c0 -0.51 -0.42 -0.92 -0.94 -0.92h-20.82c-0.52 0 -0.94 -0.41 -0.94 -0.92v-9.18c0 -0.5 0.42 -0.92 0.94 -0.92h1.08c0.52 0 1.35 0.11 1.85 0.24l3.01 0.81c0.5 0.13 0.82 0.65 0.7 1.15l-1.19 5.18c-0.12 0.5 0.2 1 0.71 1.13l1.23 0.3c0.5 0.13 1 -0.18 1.12 -0.67l1.76 -7.65c0.12 -0.5 -0.1 -1.16 -0.49 -1.48c-0.38 -0.32 -0.72 -1 -0.75 -1.5l-0.15 -2.71c-0.03 -0.51 0.33 -0.73 0.79 -0.51l3.41 1.67z"></path>
  </symbol>
  <symbol id="beach" xmlns="http://www.w3.org/2000/svg" viewBox="0 0 15 15">
    <path d="M5.3608,1.67l-.01,4.02a4.4523,4.4523,0,0,0-1.1-.11c-.37.1-.74.63-1.1.76A4.2019,4.2019,0,0,1,5.3608,1.67Zm2.41-.64,2.03,3.45a3.1832,3.1832,0,0,1,.84-.61c.36-.1.94.17,1.34.11A4.2018,4.2018,0,0,0,7.7708,1.03ZM1.0008,13h13c-.66-.66-2.64-1.11-4.34-1.33l-1.87-7c.52-.05,1.15.03,1.53,0l-2.11-3.6h-.01a6.1743,6.1743,0,0,0-.7.14,4.3792,4.3792,0,0,0-.64.22l-.01,4.15c.35-.17.84-.54,1.3-.74l1.8,6.74c-.58-.05-1.09-.08-1.45-.08C6.0308,11.5,2.0008,12,1.0008,13Z"></path>
  </symbol>
  <symbol xmlns="http://www.w3.org/2000/svg" id="bridge" viewBox="0 0 15 15">
    <path d="m0 6.84201v4.15799h2v-1c.036-1.08899.911-1.96399 2-1.99999 1.089.036 1.964.911 2 1.99999v1h3v-1c.036-1.08899.911-1.96399 2-1.99999 1.089.036 1.964.911 2 1.99999v1h2v-4.15799c-4.4-5.76-11.929-4.442-15 0zm9.5-3.108c.514.121 1.016.289 1.5.5v2.766h-1.5zm-.5-.1v3.366h-1.5v-3.494c.503 0 1.005.043 1.5.128zm-5.5.843c.48-.248.982-.451 1.5-.606v3.129h-1.5zm2 2.523v-3.27c.493-.115.995-.187 1.5-.215v3.485zm-2.5-2.256v2.256h-2.5c.676-.906 1.532-1.672 2.5-2.256zm8.5 2.256v-2.5l-.053-.053c1.202.603 2.247 1.477 3.053 2.553z"></path>
  </symbol>
  <symbol version="1.1" id="building" xmlns="http://www.w3.org/2000/svg" viewBox="0 0 15 15">
    <path d="M3,2v11h5v-3h3v3h1V2H3z M7,12H4v-2h3V12z M7,9H4V7h3V9z M7,6H4V4h3V6z M11,9H8V7h3V9z M11,6H8V4h3V6z"></path>
  </symbol>
  <symbol xmlns="http://www.w3.org/2000/svg" id="bus" viewBox="0 0 15 15">
    <path d="M2 3C2 1.9 2.9 1 4 1H11C12.1 1 13 1.9 13 3V11C13 12 12 12 12 12V13C12 13.55 11.55 14 11 14C10.45 14 10 13.55 10 13V12H5V13C5 13.55 4.55 14 4 14C3.45 14 3 13.55 3 13V12C2 12 2 11 2 11V3ZM3.5 4C3.22 4 3 4.22 3 4.5V7.5C3 7.78 3.22 8 3.5 8H11.5C11.78 8 12 7.78 12 7.5V4.5C12 4.22 11.78 4 11.5 4H3.5ZM4 9C3.45 9 3 9.45 3 10C3 10.55 3.45 11 4 11C4.55 11 5 10.55 5 10C5 9.45 4.55 9 4 9ZM11 9C10.45 9 10 9.45 10 10C10 10.55 10.45 11 11 11C11.55 11 12 10.55 12 10C12 9.45 11.55 9 11 9ZM4 2.5C4 2.78 4.22 3 4.5 3H10.5C10.78 3 11 2.78 11 2.5C11 2.22 10.78 2 10.5 2H4.5C4.22 2 4 2.22 4 2.5Z"></path>
  </symbol>
  <symbol version="1.1" id="cafe" xmlns="http://www.w3.org/2000/svg" viewBox="0 0 15 15">
    <path d="M12,5h-2V3H2v4c0.0133,2.2091,1.8149,3.9891,4.024,3.9758C7.4345,10.9673,8.7362,10.2166,9.45,9H12c1.1046,0,2-0.8954,2-2
	S13.1046,5,12,5z M12,8H9.86C9.9487,7.6739,9.9958,7.3379,10,7V6h2c0.5523,0,1,0.4477,1,1S12.5523,8,12,8z M10,12.5
	c0,0.2761-0.2239,0.5-0.5,0.5h-7C2.2239,13,2,12.7761,2,12.5S2.2239,12,2.5,12h7C9.7761,12,10,12.2239,10,12.5z"></path>
  </symbol>
  <symbol xmlns="http://www.w3.org/2000/svg" id="campsite" viewBox="0 0 15 15">
    <path d="M14 10V11C14 11.5523 13.5523 12 13 12H2C1.44772 12 1 11.5523 1 11V10C1 9.44772 1.44772 9.00001 2 9.00001H2.25L7.03206 1.25762C7.24699 0.90965 7.75302 0.909651 7.96794 1.25762L12.75 9.00001H13C13.5523 9.00001 14 9.44772 14 10ZM10.5 9.00001L7.5 4.00001L4.5 9.00001H10.5Z"></path>
  </symbol>
  <symbol xmlns="http://www.w3.org/2000/svg" id="car" viewBox="0 0 15 15">
    <path d="M13.84,6.852,12.6,5.7,11.5,3.5a1.05,1.05,0,0,0-.9-.5H4.4a1.05,1.05,0,0,0-.9.5L2.4,5.7,1.16,6.852A.5.5,0,0,0,1,7.219V11.5a.5.5,0,0,0,.5.5h2c.2,0,.5-.2.5-.4V11h7v.5c0,.2.2.5.4.5h2.1a.5.5,0,0,0,.5-.5V7.219A.5.5,0,0,0,13.84,6.852ZM4.5,4h6l1,2h-8ZM5,8.6c0,.2-.3.4-.5.4H2.4C2.2,9,2,8.7,2,8.5V7.4c.1-.3.3-.5.6-.4l2,.4c.2,0,.4.3.4.5Zm8-.1c0,.2-.2.5-.4.5H10.5c-.2,0-.5-.2-.5-.4V7.9c0-.2.2-.5.4-.5l2-.4c.3-.1.5.1.6.4Z"></path>
  </symbol>
  <symbol version="1.1" id="castle" xmlns="http://www.w3.org/2000/svg" viewBox="0 0 15 15">
    <path d="M11,4H4C3.4477,4,3,3.5523,3,3V0.5C3,0.2239,3.2239,0,3.5,0S4,0.2239,4,0.5V2h1V1c0-0.5523,0.4477-1,1-1s1,0.4477,1,1v1h1V1
	c0-0.5523,0.4477-1,1-1s1,0.4477,1,1v1h1V0.5C11,0.2239,11.2239,0,11.5,0S12,0.2239,12,0.5V3C12,3.5523,11.5523,4,11,4z M14,14.5
	c0,0.2761-0.2239,0.5-0.5,0.5h-12C1.2239,15,1,14.7761,1,14.5S1.2239,14,1.5,14H2c0.5523,0,1-0.4477,1-1c0,0,1-6,1-7
	c0-0.5523,0.4477-1,1-1h5c0.5523,0,1,0.4477,1,1c0,1,1,7,1,7c0,0.5523,0.4477,1,1,1h0.5c0.2723-0.0001,0.4946,0.2178,0.5,0.49V14.5z
	 M9,10.5C9,9.6716,8.3284,9,7.5,9S6,9.6716,6,10.5V14h3V10.5z"></path>
  </symbol>
  <symbol xmlns="http://www.w3.org/2000/svg" id="city" viewBox="0 0 15 15">
    <path d="M12.6368 3.9994H10.9981V2.3608C10.998 2.16148 10.8364 1.99994 10.6371 2H10.3591C10.1598 2 9.9982 2.16158 9.9982 2.3609V3.9994H8.36C8.16068 3.9994 7.9991 4.16098 7.9991 4.3603V9.9984H4.3621C4.16168 9.9984 3.9992 10.1609 3.9992 10.3613V12.6358C3.99975 12.8358 4.16207 12.9977 4.3621 12.9977H12.6368C12.8361 12.9977 12.9977 12.8361 12.9977 12.6368V4.36C12.9977 4.16068 12.8361 3.9994 12.6368 3.9994ZM5.9989 11.9981H4.9989V10.9981H5.9989V11.9981ZM7.9989 11.9981H6.9989V10.9981H7.9989V11.9981ZM9.9989 11.9981H8.9989V10.9981H9.9989V11.9981ZM9.9989 9.9981H8.9989V8.9981H9.9989V9.9981ZM9.9989 7.9981H8.9989V6.9981H9.9989V7.9981ZM9.9989 5.9981H8.9989V4.9981H9.9989V5.9981ZM11.9989 11.9971H10.9989V10.9971H11.9989V11.9971ZM11.9989 9.9971H10.9989V8.9971H11.9989V9.9971ZM11.9989 7.9971H10.9989V6.9971H11.9989V7.9971ZM11.9989 5.9971H10.9989V4.9971H11.9989V5.9971ZM6.9987 2.3608C6.99864 2.16152 6.83708 2 6.6378 2H4.36C4.16068 2 3.9991 2.16158 3.9991 2.3609V4H2.36C2.16138 4.00049 2.00049 4.16138 2 4.36V12.6474C2 12.8407 2.1567 12.9974 2.35 12.9974H2.9994V8.9986H6.9987V2.3608ZM4 7.9981H3V6.9981H4V7.9981ZM4 5.9981H3V4.9981H4V5.9981ZM6 7.9981H5V6.9981H6V7.9981ZM6 5.9981H5V4.9981H6V5.9981ZM6 3.9981H5V3H6V4V3.9981Z"></path>
  </symbol>
  <symbol version="1.2" baseProfile="tiny" xmlns="http://www.w3.org/2000/svg" overflow="inherit" viewBox="0 0 50 50" id="climbing">
    <path d="M6.43 21.55c-0.22 0.45 -0.37 0.94 -0.46 1.47c-0.04 0.26 -0.06 0.53 -0.06 0.79l0.19 12.13l-4.2 9.02c-0.14 0.27 -0.25 0.58 -0.3 0.9c-0.23 1.49 0.8 2.88 2.3 3.11c1.16 0.18 2.27 -0.41 2.8 -1.39l4.63 -9.86c0.1 -0.23 0.18 -0.47 0.22 -0.73l0.03 -0.37l-0.04 -7.5l7.11 3.09l1.15 7.33c0.23 1.07 1.11 1.93 2.26 2.11c1.5 0.22 2.89 -0.81 3.12 -2.28c0.04 -0.25 0.04 -0.51 0.01 -0.75l-1.4 -8.84c-0.17 -0.85 -0.74 -1.59 -1.53 -1.96l-6.35 -2.81l4.05 -7.01l2.01 2.54c0.21 0.23 0.47 0.42 0.77 0.54l7.65 2.23c1.02 0.22 2.06 -0.31 2.45 -1.29c0.45 -1.11 -0.08 -2.36 -1.18 -2.8l-0.11 -0.04l-6.64 -1.95l-5 -5.98c-0.75 -0.79 -1.75 -1.36 -2.91 -1.54c-2.03 -0.3 -3.96 0.66 -4.97 2.3l-5.56 9.57zm21.94 17.38l-0.48 3.63l-13.16 3.19l0.13 2.25h32.09c1.14 0 2.06 -0.91 2.06 -2.04l-0.04 -43.07l-4.4 -1.02l-2.53 11.32l-4.22 1.77l-3.74 10.44l3.56 7.99l-1 3.07l-8.26 2.48zm-8.93 -29.78c2.26 0 4.1 -1.83 4.1 -4.08c0 -2.25 -1.84 -4.08 -4.09 -4.08s-4.1 1.83 -4.1 4.08c0 2.25 1.84 4.08 4.1 4.08zm-8.15 0.64c0.31 -0.55 0.13 -1.27 -0.43 -1.59l-1.98 -1.15c-0.57 -0.31 -1.28 -0.13 -1.61 0.43l-6.11 10.5c-0.31 0.55 -0.13 1.26 0.43 1.59l1.99 1.14c0.56 0.32 1.27 0.13 1.59 -0.42l6.11 -10.5z"></path>
  </symbol>
  <symbol version="1.1" id="dam" xmlns="http://www.w3.org/2000/svg" viewBox="0 0 15 15">
    <path d="M13.94,9.5c0,0.2761-0.2239,0.5-0.5,0.5l0,0c-0.259,0.0219-0.4994,0.1439-0.67,0.34c-0.2714,0.2887-0.6175,0.4964-1,0.6
	c-0.6115,0.1816-1.2734,0.0424-1.76-0.37l-0.39-0.35c-0.2976-0.3038-0.7851-0.3087-1.0889-0.0111
	C8.5274,10.2126,8.5237,10.2163,8.52,10.22c-0.14,0.12-0.27,0.25-0.42,0.37c-0.7278,0.5784-1.7663,0.5489-2.46-0.07L5.3,10.19
	l-0.1-0.06l0.3,1.22l0.49,2c0.0829,0.2634-0.0634,0.5441-0.3267,0.6271C5.6105,13.9937,5.5553,14.0014,5.5,14h-4
	C1.2239,14,1,13.7761,1,13.5v-12C1,1.2239,1.2239,1,1.5,1h1.1c0.2346-0.0011,0.4384,0.1611,0.49,0.39L4,5.06V5.2
	c0.6569-0.314,1.4361-0.2205,2,0.24c0.16,0.13,0.31,0.28,0.47,0.41c0.2847,0.2546,0.7153,0.2546,1,0c0.16-0.13,0.31-0.28,0.47-0.41
	c0.7076-0.5968,1.7424-0.5968,2.45,0c0.15,0.13,0.29,0.27,0.44,0.39c0.2847,0.2546,0.7153,0.2546,1,0l0.47-0.41
	c0.3163-0.2672,0.7159-0.4157,1.13-0.42l0,0c0.2761,0,0.5,0.2239,0.5,0.5S13.7061,6,13.43,6l0,0
	c-0.259,0.0219-0.4994,0.1439-0.67,0.34c-0.2714,0.2887-0.6175,0.4964-1,0.6C11.1485,7.1216,10.4866,6.9824,10,6.57L9.67,6.23
	C9.3724,5.9262,8.8849,5.9213,8.5811,6.2189C8.5774,6.2226,8.5737,6.2263,8.57,6.23C8.43,6.35,8.3,6.48,8.15,6.6
	C7.4222,7.1784,6.3837,7.1489,5.69,6.53L5.3,6.19c-0.2847-0.2546-0.7153-0.2546-1,0L4.24,6.24L4.93,9
	C5.3226,9.029,5.6965,9.1793,6,9.43c0.16,0.13,0.31,0.28,0.47,0.41c0.2847,0.2546,0.7153,0.2546,1,0c0.16-0.13,0.31-0.28,0.47-0.41
	c0.7076-0.5968,1.7424-0.5968,2.45,0c0.15,0.13,0.29,0.27,0.44,0.39c0.2847,0.2546,0.7153,0.2546,1,0l0.47-0.41
	c0.3177-0.2636,0.7172-0.4085,1.13-0.41l0,0c0.2761-0.0055,0.5044,0.2138,0.5099,0.4899C13.94,9.4933,13.94,9.4966,13.94,9.5z"></path>
  </symbol>
  <symbol version="1.1" id="harbor" xmlns="http://www.w3.org/2000/svg" viewBox="0 0 15 15">
    <path id="path5263" d="M7.5,0C5.5,0,4,1.567,4,3.5c0.0024,1.5629,1.0397,2.902,2.5,3.3379v6.0391
	c-0.9305-0.1647-1.8755-0.5496-2.6484-1.2695C2.7992,10.6273,2.002,9.0676,2.002,6.498c0.0077-0.5646-0.4531-1.0236-1.0176-1.0137
	C0.4329,5.493-0.0076,5.9465,0,6.498c0,3.0029,1.0119,5.1955,2.4902,6.5723C3.9685,14.4471,5.8379,15,7.5,15
	c1.6656,0,3.535-0.5596,5.0117-1.9395S14.998,9.4868,14.998,6.498c0.0648-1.3953-2.0628-1.3953-1.998,0
	c0,2.553-0.7997,4.1149-1.8535,5.0996C10.3731,12.3203,9.4288,12.7084,8.5,12.875V6.8418C9.9607,6.4058,10.9986,5.0642,11,3.5
	C11,1.567,9.5,0,7.5,0z M7.5,2C8.3284,2,9,2.6716,9,3.5S8.3284,5,7.5,5S6,4.3284,6,3.5S6.6716,2,7.5,2z"></path>
  </symbol>
  <symbol id="hot-spring" xmlns="http://www.w3.org/2000/svg" viewBox="0 0 15 15">
    <path d="M6.682,5.759c-.505-.725-.781-1.121-.63-2.376,.139-1.156,.678-1.616,1.198-2.059,.404-.345,.797-.68,.981-1.324,.301,.722-.036,1.47-.349,2.164-.311,.691-.599,1.329-.211,1.836,.971,1.271,1.963,2.88,.971,4.586-.214,.393-.539,.681-.861,.968-.422,.375-.841,.747-1.004,1.348-.269-.677,.008-1.366,.285-2.052,.306-.759,.61-1.516,.172-2.251-.203-.34-.389-.607-.551-.84Zm3.371-1.174c-.098-.632,.034-1.281,.368-1.809,.367-.45,.701-.642,.991-.81,.345-.199,.627-.362,.83-.877,.289,.684,0,1.188-.304,1.718-.119,.207-.24,.418-.329,.645-.191,.61,.101,.893,.467,1.247,.358,.346,.786,.76,.899,1.617,.083,.635-.036,1.156-.372,1.684-.356,.436-.681,.655-.965,.846-.356,.24-.648,.437-.856,.965-.292-.688,.031-1.259,.353-1.828,.123-.217,.246-.434,.334-.658,.073-.558-.234-.867-.581-1.217-.357-.36-.757-.763-.834-1.523Zm-8.018,0c-.098-.632,.005-1.3,.368-1.809,.376-.528,.729-.717,1.035-.881,.323-.173,.594-.318,.786-.806,.289,.683-.014,1.208-.325,1.749-.122,.212-.246,.427-.336,.655-.152,.385,.131,1.014,.501,1.242,1.002,.801,1.227,2.286,.547,3.353-.366,.448-.704,.648-.999,.823-.353,.209-.645,.382-.849,.898-.278-.656,.008-1.18,.3-1.714,.131-.24,.263-.481,.345-.737,.179-.557-.134-.884-.51-1.277-.349-.365-.752-.785-.863-1.498Zm10.965,4.414c.7,2.616-3.474,3-5.5,3s-6.2-.484-5.5-3c-.633,.316-1,.961-1,1.5,0,1.519,2.91,2.9,6.5,2.9s6.5-1.381,6.5-2.9c0-.539-.367-1.184-1-1.5Z"></path>
  </symbol>
</svg>
